# File created by Blade
# Date/Time:  Wed Jan 21 14:58:10 2015
# Frame Rate: 120.000 fps
#------------------------------------------------------
:FULLY-SPECIFIED
:DEGREES
1111
root 17.573669 35.387707 -22.568171 -172.455589 3.065891 -178.473744
Spine -17.401043 3.763908 0.389253
Head 13.078712 -2.709923 -0.039869
LeftShoulder -10.734698 -31.086345 18.922608
LeftArm -2.583964 5.007304 -11.312755
LeftForeArm 10.567761 -0.000000 -3.311633
LeftHand -11.674722 -0.000000 -1.157806
LeftHandThumb1 -26.253704 0.000000 33.147579
RightShoulder -12.260401 -3.296730 -12.129738
RightArm 6.411526 36.831698 14.523817
RightForeArm -35.763023 -0.000000 3.863167
RightHand -6.140307 -0.000000 7.105112
RightHandThumb1 -24.326973 -0.000000 -32.862282
LeftUpLeg 0.621731 14.076099 4.334484
LeftLeg -5.938428 -0.000000 0.000000
LeftFoot -20.055541 27.026259 -13.798718
LeftToeBase 26.266563 -0.000000 -0.000000
RightUpLeg -1.801016 -3.562481 -2.808484
RightLeg -2.735846 -0.000000 0.000000
RightFoot -18.872995 -16.806567 16.685596
RightToeBase 23.353214 -0.000000 -0.000000
1112
root 17.571912 35.387600 -22.563715 -172.437491 3.050665 -178.480458
Spine -17.394025 3.748524 0.399647
Head 13.048611 -2.665765 -0.052723
LeftShoulder -10.750478 -31.063869 18.913784
LeftArm -2.551670 5.019879 -11.326953
LeftForeArm 10.553732 0.000000 -3.320869
LeftHand -11.668551 -0.000000 -1.147627
LeftHandThumb1 -26.253704 0.000000 33.147579
RightShoulder -12.229390 -3.334276 -12.147887
RightArm 6.475703 36.893969 14.573175
RightForeArm -35.772785 -0.000000 3.848088
RightHand -6.185074 0.000000 7.056661
RightHandThumb1 -24.326973 -0.000000 -32.862282
LeftUpLeg 0.599882 14.085385 4.319997
LeftLeg -5.956194 -0.000000 0.000000
LeftFoot -20.036204 27.007543 -13.791728
LeftToeBase 26.278194 -0.000000 -0.000000
RightUpLeg -1.810238 -3.562209 -2.816392
RightLeg -2.763376 -0.000000 0.000000
RightFoot -18.879003 -16.863389 16.696965
RightToeBase 23.293900 -0.000000 -0.000000
1113
root 17.571098 35.387548 -22.559953 -172.426593 3.036995 -178.487248
Spine -17.378965 3.748150 0.401841
Head 13.009300 -2.656652 -0.066806
LeftShoulder -10.740056 -31.081521 18.897162
LeftArm -2.535502 5.027287 -11.330900
LeftForeArm 10.609696 -0.000000 -3.325984
LeftHand -11.680149 -0.000000 -1.148531
LeftHandThumb1 -26.253704 0.000000 33.147579
RightShoulder -12.207122 -3.349513 -12.158270
RightArm 6.517774 36.907013 14.588587
RightForeArm -35.730747 -0.000000 3.828176
RightHand -6.200640 -0.000000 7.052727
RightHandThumb1 -24.326973 -0.000000 -32.862282
LeftUpLeg 0.592525 14.069129 4.308324
LeftLeg -5.985088 -0.000000 0.000000
LeftFoot -20.028212 27.019159 -13.808083
LeftToeBase 26.320310 -0.000000 -0.000000
RightUpLeg -1.805567 -3.560967 -2.822550
RightLeg -2.803106 -0.000000 0.000000
RightFoot -18.832899 -16.851172 16.662825
RightToeBase 23.203539 -0.000000 -0.000000
1114
root 17.569690 35.387576 -22.555760 -172.411522 3.025143 -178.490945
Spine -17.367152 3.755523 0.405527
Head 12.963542 -2.643564 -0.072415
LeftShoulder -10.729716 -31.077081 18.881930
LeftArm -2.511060 5.023147 -11.339009
LeftForeArm 10.605413 -0.000000 -3.341781
LeftHand -11.629522 -0.000000 -1.177409
LeftHandThumb1 -26.253704 0.000000 33.147579
RightShoulder -12.196677 -3.361577 -12.159860
RightArm 6.569101 36.919362 14.587133
RightForeArm -35.705073 -0.000000 3.778075
RightHand -6.137846 0.000000 7.081983
RightHandThumb1 -24.326973 -0.000000 -32.862282
LeftUpLeg 0.575705 14.062291 4.298629
LeftLeg -6.002494 -0.000000 0.000000
LeftFoot -19.999623 27.024139 -13.783594
LeftToeBase 26.286062 -0.000000 -0.000000
RightUpLeg -1.813613 -3.560078 -2.824968
RightLeg -2.825414 -0.000000 0.000000
RightFoot -18.811751 -16.949349 16.581379
RightToeBase 23.060824 -0.000000 -0.000000
1115
root 17.568221 35.386941 -22.551145 -172.398957 3.015714 -178.504218
Spine -17.349495 3.762222 0.393163
Head 12.920064 -2.645898 -0.073067
LeftShoulder -10.720793 -31.102278 18.889375
LeftArm -2.511615 5.029780 -11.365818
LeftForeArm 10.632673 -0.000000 -3.330400
LeftHand -11.607626 -0.000000 -1.168712
LeftHandThumb1 -26.253704 0.000000 33.147579
RightShoulder -12.209400 -3.458598 -12.162259
RightArm 6.683404 37.036802 14.677304
RightForeArm -35.727294 -0.000000 3.759425
RightHand -6.134222 -0.000000 7.026635
RightHandThumb1 -24.326973 -0.000000 -32.862282
LeftUpLeg 0.556078 14.067998 4.279611
LeftLeg -6.010492 -0.000000 0.000000
LeftFoot -19.991187 27.001275 -13.788826
LeftToeBase 26.291402 -0.000000 -0.000000
RightUpLeg -1.808710 -3.537238 -2.845036
RightLeg -2.869612 -0.000000 0.000000
RightFoot -18.832112 -16.928371 16.665102
RightToeBase 23.283066 -0.000000 -0.000000
1116
root 17.566975 35.386896 -22.548679 -172.393235 3.011731 -178.506698
Spine -17.330627 3.774511 0.397095
Head 12.880733 -2.644938 -0.075991
LeftShoulder -10.707427 -31.105671 18.880758
LeftArm -2.492046 5.067203 -11.388125
LeftForeArm 10.636510 -0.000000 -3.352809
LeftHand -11.584970 0.000000 -1.164872
LeftHandThumb1 -26.253704 0.000000 33.147579
RightShoulder -12.185391 -3.390096 -12.171937
RightArm 6.672760 36.965311 14.638779
RightForeArm -35.722217 -0.000000 3.771855
RightHand -6.168761 -0.000000 7.045399
RightHandThumb1 -24.326973 -0.000000 -32.862282
LeftUpLeg 0.554042 14.064552 4.273542
LeftLeg -6.026489 -0.000000 0.000000
LeftFoot -19.969830 26.999311 -13.783008
LeftToeBase 26.252647 -0.000000 -0.000000
RightUpLeg -1.805689 -3.547067 -2.850796
RightLeg -2.897564 -0.000000 0.000000
RightFoot -18.785960 -16.885807 16.761219
RightToeBase 23.147152 -0.000000 -0.000000
